<?xml version="1.0" encoding="iso-8859-1"?>
<!-- Generator: Adobe Illustrator 19.0.0, SVG Export Plug-In . SVG Version: 6.00 Build 0)  -->
<svg version="1.1" id="Capa_1" xmlns="http://www.w3.org/2000/svg" xmlns:xlink="http://www.w3.org/1999/xlink" x="0px" y="0px"
	 viewBox="0 0 512.002 512.002" style="enable-background:new 0 0 512.002 512.002;" xml:space="preserve">
<path style="fill:#F0EEEE;" d="M453.834,94.847c-4.455-6.117-9.072-10.885-13.318-14.552c5.545-0.6,11.49-0.738,16.622,0.211
	c3.022,0.561,6.073-0.781,7.71-3.378c1.636-2.598,1.523-5.931-0.284-8.413C422.206,10.57,372.283-0.749,337.936,0.037
	C301.344,0.848,269.875,15.417,256,26.649c-13.875-11.232-45.344-25.801-81.935-26.612C139.698-0.738,89.794,10.57,47.438,68.715
	c-1.808,2.482-1.92,5.814-0.284,8.413c1.637,2.598,4.695,3.939,7.71,3.378c5.289-0.978,11.226-0.82,16.64-0.226
	c-4.251,3.668-8.875,8.442-13.336,14.567c-12.45,17.093-26.252,48.75-21.303,102.491c0.312,3.38,2.854,6.129,6.199,6.704
	c3.347,0.579,6.659-1.169,8.08-4.251c2.457-5.329,8.202-10.493,14.26-14.262c-5.604,14.347-8.401,34.964,4.085,62.831
	c1.275,2.845,4.165,4.608,7.292,4.42c3.113-0.186,5.786-2.279,6.713-5.256c1.83-5.875,7.186-15.139,14.439-16.585
	c8.275-1.646,17.634,7.127,24.02,14.78c1.425,1.708,3.534,2.696,5.759,2.696H384.29c2.225,0,4.334-0.987,5.759-2.696
	c6.385-7.653,15.728-16.432,24.02-14.78c7.254,1.445,12.609,10.71,14.439,16.585c0.927,2.977,3.6,5.07,6.713,5.256
	c0.15,0.009,0.3,0.013,0.449,0.013c2.94,0,5.629-1.725,6.843-4.433c12.482-27.859,9.689-48.475,4.081-62.833
	c6.06,3.77,11.806,8.935,14.264,14.265c1.421,3.081,4.732,4.827,8.08,4.251c3.346-0.574,5.888-3.324,6.199-6.704
	C480.086,143.597,466.284,111.94,453.834,94.847z"/>
<g>
	<path style="fill:#D9D4D4;" d="M453.834,94.847c-4.455-6.117-9.072-10.885-13.318-14.552c5.545-0.6,11.49-0.738,16.622,0.211
		c3.022,0.561,6.073-0.781,7.71-3.378c1.636-2.598,1.523-5.931-0.284-8.413C422.206,10.57,372.283-0.749,337.936,0.037
		c-3.676,0.082-7.297,0.308-10.856,0.649c32.612,3.241,73.741,18.963,109.483,68.028c1.808,2.482,1.92,5.814,0.284,8.413
		c-1.637,2.598-4.688,3.939-7.71,3.378c-5.132-0.949-11.077-0.811-16.622-0.211c4.246,3.666,8.863,8.435,13.318,14.552
		c11.577,15.894,24.314,44.393,22.065,91.519c5.566,3.679,10.678,8.48,12.958,13.425c1.421,3.081,4.732,4.827,8.08,4.251
		c3.346-0.574,5.888-3.324,6.199-6.704C480.086,143.597,466.284,111.94,453.834,94.847z"/>
	<path style="fill:#D9D4D4;" d="M447.136,197.338c-0.311,3.38-2.854,6.129-6.199,6.704c-3.349,0.576-6.659-1.169-8.08-4.251
		c-2.458-5.33-8.204-10.495-14.264-14.265c4.591,11.755,7.29,27.707,1.271,48.39c4.266,3.578,7.345,9.439,8.643,13.607
		c0.927,2.977,3.6,5.07,6.713,5.256c0.15,0.009,0.3,0.013,0.449,0.013c2.94,0,5.629-1.725,6.843-4.433
		c11.57-25.823,10.014-45.419,5.258-59.58C447.609,191.572,447.405,194.416,447.136,197.338z"/>
</g>
<rect x="223" y="296" style="fill:#FA9E3E;" width="66" height="55"/>
<path style="fill:#484655;" d="M308.927,358.945h-3.331v-4.29c0-6.15-5.003-11.153-11.153-11.153h-76.885
	c-6.15,0-11.153,5.003-11.153,11.153v4.29h-3.331c-45.69,0-82.862,37.172-82.862,82.862v62.694c0,4.142,3.358,7.5,7.5,7.5H384.29
	c4.142,0,7.5-3.358,7.5-7.5v-62.694C391.79,396.117,354.618,358.945,308.927,358.945z"/>
<g>
	<path style="fill:#FA9E3E;" d="M125.84,213.991h49.369v56.61H125.84c-15.632,0-28.305-12.672-28.305-28.305
		S110.207,213.991,125.84,213.991z"/>
	<path style="fill:#FA9E3E;" d="M386.161,213.991h-49.369v56.61h49.369c15.632,0,28.305-12.672,28.305-28.305
		S401.794,213.991,386.161,213.991z"/>
</g>
<path style="fill:#FFB56B;" d="M368.11,150.061v69.291c0,62.124-50.83,113.893-112.952,113.435
	c-30.626-0.225-58.332-12.731-78.438-32.837c-20.28-20.29-32.83-48.31-32.83-79.27v-70.62c0-6.77,1.2-13.26,3.4-19.27
	C155.14,109.32,175.75,94,199.94,94c23.022,0,42.801,13.876,51.433,33.723c0.805,1.851,2.608,3.067,4.627,3.067l0,0
	c2.019,0,3.822-1.216,4.627-3.067C269.259,107.876,289.038,94,312.06,94c24.19,0,44.8,15.32,52.65,36.79
	C366.91,136.801,368.11,143.291,368.11,150.061z"/>
<path style="fill:#EF9245;" d="M364.711,130.791c-7.85-21.47-28.46-36.79-52.65-36.79c-3.141,0-6.219,0.267-9.22,0.764
	c18.006,3.333,32.776,17.35,38.894,36.026c1.971,6.01,3.046,12.5,3.046,19.27v69.291c0,59.815-42.221,110.022-95.04,113.263
	c1.795,0.099,3.601,0.159,5.418,0.172c62.123,0.457,112.952-51.311,112.952-113.435v-69.291
	C368.11,143.291,366.91,136.801,364.711,130.791z"/>
<g>
	<path style="fill:#19303F;" d="M310.324,202.964c-4.142,0-7.5-3.358-7.5-7.5v-2c0-4.142,3.358-7.5,7.5-7.5
		c4.143,0,7.5,3.358,7.5,7.5v2C317.824,199.606,314.466,202.964,310.324,202.964z"/>
	<path style="fill:#19303F;" d="M201.677,202.964c-4.143,0-7.5-3.358-7.5-7.5v-2c0-4.142,3.357-7.5,7.5-7.5s7.5,3.358,7.5,7.5v2
		C209.177,199.606,205.82,202.964,201.677,202.964z"/>
</g>
<path style="fill:#F0EEEE;" d="M275.15,220.124c-6.807,0-13.336,1.73-19.149,5.04c-5.812-3.31-12.341-5.04-19.149-5.04
	c-21.422,0-38.851,17.428-38.851,38.851c0,5.495,1.136,10.822,3.374,15.832c0.974,2.179,2.966,3.732,5.317,4.145
	c2.355,0.413,4.753-0.37,6.411-2.086c11.351-11.758,26.587-18.233,42.898-18.233c16.312,0,31.547,6.475,42.898,18.233
	c1.366,1.414,3.237,2.194,5.168,2.194c0.413,0,0.829-0.035,1.242-0.108c2.351-0.413,4.343-1.966,5.317-4.145
	c2.238-5.011,3.374-10.337,3.374-15.832C314.001,237.552,296.572,220.124,275.15,220.124z"/>
<g>
	<path style="fill:#CFF4FF;" d="M196.902,361.585c-1.649-1.424-3.835-2.059-5.994-1.743c-19.476,2.868-37.355,12.663-50.347,27.578
		c-13.122,15.068-20.35,34.383-20.35,54.387v62.694c0,4.142,3.358,7.5,7.5,7.5H192c4.143,0,7.5-3.358,7.5-7.5V367.262
		C199.501,365.082,198.552,363.01,196.902,361.585z"/>
	<path style="fill:#CFF4FF;" d="M320.001,367.262c36.37,5.357,64.289,36.686,64.289,74.545v62.694h-64.289V367.262z"/>
	<path style="fill:#CFF4FF;" d="M371.44,387.42c-12.991-14.915-30.871-24.71-50.347-27.578c-2.154-0.316-4.344,0.319-5.994,1.743
		c-1.65,1.425-2.599,3.497-2.599,5.677v137.239c0,4.142,3.357,7.5,7.5,7.5h64.289c4.142,0,7.5-3.358,7.5-7.5v-62.694
		C391.79,421.803,384.562,402.488,371.44,387.42z"/>
</g>
<path style="fill:#ADE0F3;" d="M371.44,387.42c-12.991-14.915-30.871-24.71-50.347-27.578c-2.154-0.316-4.344,0.319-5.994,1.743
	c-0.728,0.629-1.31,1.388-1.744,2.223c13.25,4.749,25.197,12.834,34.585,23.612c13.122,15.068,20.35,34.383,20.35,54.387v62.694
	c0,4.142-3.358,7.5-7.5,7.5h23.5c4.142,0,7.5-3.358,7.5-7.5v-62.694C391.79,421.803,384.562,402.488,371.44,387.42z"/>
<g>
	<path style="fill:#E6FAFF;" d="M354.026,433.083l10.778-10.779c2.327-2.327,2.865-5.9,1.326-8.809l-24.218-45.792
		c-0.859-1.625-2.284-2.877-4.006-3.52c-2.599-0.971-5.241-1.805-7.906-2.508v-0.006c-0.082-0.022-0.165-0.04-0.247-0.062
		c-0.346-0.09-0.694-0.173-1.04-0.259c-0.332-0.082-0.663-0.166-0.997-0.243c-0.543-0.127-1.088-0.245-1.633-0.36
		c-0.134-0.028-0.268-0.06-0.403-0.087c-1.525-0.315-3.054-0.59-4.586-0.815c-0.07-0.01-0.141-0.011-0.211-0.019
		c-2.753-0.398-5.549-0.666-8.382-0.787v8.226v30.739v100.75v5.75v7.5h7.5h6h2.844c2.655,0,5.112-1.404,6.461-3.691l30.656-52
		c1.555-2.638,1.351-5.955-0.517-8.382L354.026,433.083z"/>
	<path style="fill:#E6FAFF;" d="M190.908,359.842c-5.684,0.837-11.341,2.297-16.813,4.341c-1.722,0.643-3.146,1.895-4.006,3.52
		l-24.218,45.792c-1.539,2.91-1.001,6.482,1.326,8.809l10.778,10.779l-11.419,14.845c-1.867,2.427-2.071,5.744-0.517,8.382
		l30.656,52c1.349,2.287,3.806,3.691,6.461,3.691H188h4h7.5v-7.5v-21v-85v-31.239v-8.226c-2.776,0.118-5.513,0.384-8.212,0.771
		C191.162,359.819,191.035,359.823,190.908,359.842z"/>
</g>
<g>
</g>
<g>
</g>
<g>
</g>
<g>
</g>
<g>
</g>
<g>
</g>
<g>
</g>
<g>
</g>
<g>
</g>
<g>
</g>
<g>
</g>
<g>
</g>
<g>
</g>
<g>
</g>
<g>
</g>
</svg>
